<?xml version="1.0" encoding="utf-8"?>
<!-- Generator: Adobe Illustrator 22.1.0, SVG Export Plug-In . SVG Version: 6.00 Build 0)  -->
<svg version="1.1" width="178" height="70" xmlns="http://www.w3.org/2000/svg" xmlns:xlink="http://www.w3.org/1999/xlink" x="0px" y="0px"
	 viewBox="0 0 350.3 107.9" style="enable-background:new 0 0 350.3 107.9;" xml:space="preserve">
<style type="text/css">
	.st0{fill:#FFFFFF;}
	.st1{fill:#ED1C24;}
</style>
<g>
	<g>
		<polygon class="st0" points="154.6,37.2 143.5,37.2 132.3,37.2 121.2,37.2 121.2,44.7 132.3,44.7 132.3,70.6 143.5,70.6 
			143.5,44.7 154.6,44.7 		"/>
		<polygon class="st0" points="327.6,37.2 316.5,37.2 305.4,37.2 294.2,37.2 294.2,44.7 305.4,44.7 305.4,70.6 316.5,70.6 
			316.5,44.7 327.6,44.7 		"/>
		
			<rect x="198.3" y="48.4" transform="matrix(-1.836970e-16 1 -1 -1.836970e-16 268.9518 -161.1105)" class="st0" width="33.4" height="11.1"/>
		
			<rect x="264.3" y="48.4" transform="matrix(-1.836970e-16 1 -1 -1.836970e-16 334.9259 -227.0845)" class="st0" width="33.4" height="11.1"/>
		
			<rect x="324.2" y="48.4" transform="matrix(-1.836970e-16 1 -1 -1.836970e-16 394.7748 -286.9335)" class="st0" width="33.4" height="11.1"/>
		<polygon class="st0" points="256.6,37.2 256.6,55.9 238,37.2 228.3,37.2 228.3,70.6 239.4,70.6 239.4,51.9 258.1,70.5 258.1,70.6 
			267.8,70.6 267.8,37.2 		"/>
		<path class="st0" d="M194.5,58.8c4.3-1.5,7.4-5.6,7.4-10.5c0-6.1-5-11.1-11.1-11.1h-17.3h-11.1v11.1v11.1v11.1h11.1V59.5h8.5
			l11.1,11.1h13.2L194.5,58.8z M187,52.1h-13.6v-7.4H187c2,0,3.7,1.7,3.7,3.7C190.7,50.4,189,52.1,187,52.1z"/>
	</g>
	<g>
		<path class="st0" d="M138.2,83h-2.3v6h-1.2v-6h-2.3v-1.1h5.8V83z"/>
		<path class="st0" d="M140.8,88.8c-0.5-0.2-0.8-0.5-1.1-0.9c-0.5-0.7-0.8-1.5-0.8-2.6c0-0.5,0.1-1,0.2-1.4c0.1-0.4,0.3-0.8,0.6-1.2
			c0.3-0.4,0.7-0.7,1.1-0.9c0.5-0.2,0.9-0.3,1.5-0.3c0.5,0,1,0.1,1.5,0.3c0.5,0.2,0.8,0.5,1.1,0.9c0.3,0.4,0.5,0.7,0.6,1.2
			c0.1,0.4,0.2,0.9,0.2,1.4c0,0.5-0.1,1-0.2,1.4s-0.3,0.8-0.6,1.2c-0.3,0.4-0.7,0.7-1.1,0.9c-0.5,0.2-0.9,0.3-1.5,0.3
			C141.8,89.1,141.3,89,140.8,88.8z M143.2,87.8c0.3-0.1,0.5-0.3,0.7-0.6c0.3-0.4,0.5-1.1,0.5-1.8c0-0.8-0.2-1.4-0.5-1.8
			c-0.2-0.2-0.4-0.4-0.7-0.6c-0.3-0.1-0.6-0.2-0.9-0.2c-0.3,0-0.7,0.1-1,0.2s-0.5,0.3-0.7,0.6c-0.3,0.4-0.5,1-0.5,1.8
			c0,0.8,0.2,1.4,0.5,1.8c0.2,0.2,0.4,0.4,0.7,0.6c0.3,0.1,0.6,0.2,0.9,0.2C142.6,88,142.9,87.9,143.2,87.8z"/>
		<path class="st0" d="M152.4,83.4c0.1,0.2,0.1,0.5,0.1,0.7c0,0.3,0,0.5-0.1,0.7c-0.1,0.2-0.2,0.5-0.4,0.7c-0.2,0.3-0.5,0.5-0.8,0.7
			c-0.3,0.2-0.7,0.2-1.1,0.2h-2V89H147v-7.2h3.2c0.3,0,0.5,0,0.7,0.1c0.5,0.1,0.8,0.4,1.1,0.8C152.2,82.9,152.3,83.2,152.4,83.4z
			 M151.3,84.2c0-0.3-0.1-0.6-0.3-0.8c-0.1-0.1-0.2-0.2-0.4-0.3c-0.2-0.1-0.3-0.1-0.5-0.1h-2v2.4h2c0.2,0,0.3,0,0.5-0.1
			c0.2-0.1,0.3-0.2,0.4-0.3C151.2,84.7,151.3,84.5,151.3,84.2z"/>
		<path class="st0" d="M158.2,83h-3.4v6h-1.2v-7.2h4.6V83z"/>
		<path class="st0" d="M160.8,88.8c-0.5-0.2-0.8-0.5-1.1-0.9c-0.5-0.7-0.8-1.5-0.8-2.6c0-0.5,0.1-1,0.2-1.4c0.1-0.4,0.3-0.8,0.6-1.2
			c0.3-0.4,0.7-0.7,1.1-0.9c0.5-0.2,0.9-0.3,1.5-0.3c0.5,0,1,0.1,1.5,0.3c0.5,0.2,0.8,0.5,1.1,0.9c0.3,0.4,0.5,0.7,0.6,1.2
			c0.1,0.4,0.2,0.9,0.2,1.4c0,0.5-0.1,1-0.2,1.4s-0.3,0.8-0.6,1.2c-0.3,0.4-0.7,0.7-1.1,0.9c-0.5,0.2-0.9,0.3-1.5,0.3
			C161.7,89.1,161.3,89,160.8,88.8z M163.2,87.8c0.3-0.1,0.5-0.3,0.7-0.6c0.3-0.4,0.5-1.1,0.5-1.8c0-0.8-0.2-1.4-0.5-1.8
			c-0.2-0.2-0.4-0.4-0.7-0.6c-0.3-0.1-0.6-0.2-0.9-0.2c-0.3,0-0.7,0.1-1,0.2s-0.5,0.3-0.7,0.6c-0.3,0.4-0.5,1-0.5,1.8
			c0,0.8,0.2,1.4,0.5,1.8c0.2,0.2,0.4,0.4,0.7,0.6c0.3,0.1,0.6,0.2,0.9,0.2C162.6,88,162.9,87.9,163.2,87.8z"/>
		<path class="st0" d="M172.2,86.9c0,0.5-0.2,0.9-0.4,1.3c-0.3,0.4-0.6,0.6-1.1,0.7c-0.3,0.1-0.5,0.1-0.8,0.1H167v-7.2h2.7
			c0.3,0,0.5,0,0.7,0.1c0.2,0.1,0.4,0.2,0.6,0.3c0.2,0.1,0.3,0.3,0.4,0.4c0.1,0.2,0.2,0.4,0.3,0.6c0.1,0.2,0.1,0.4,0.1,0.7
			c0,0.2,0,0.4-0.1,0.6c-0.1,0.2-0.2,0.4-0.3,0.5c0,0,0,0-0.1,0.1c0.2,0.1,0.3,0.3,0.4,0.4C172,85.9,172.2,86.4,172.2,86.9z
			 M168.2,83v1.7h1.6c0.1,0,0.2,0,0.3-0.1c0.1-0.1,0.2-0.1,0.3-0.2c0.1-0.2,0.2-0.3,0.2-0.5c0-0.2-0.1-0.4-0.2-0.6
			c-0.1-0.1-0.2-0.1-0.3-0.2c-0.1-0.1-0.2-0.1-0.3-0.1H168.2z M170.9,86.5c0-0.1-0.1-0.2-0.2-0.3c-0.2-0.2-0.4-0.3-0.7-0.3h-1.8v2
			h1.7c0.2,0,0.3,0,0.4-0.1c0.1,0,0.2-0.1,0.3-0.2c0.2-0.2,0.3-0.5,0.3-0.8C170.9,86.7,170.9,86.6,170.9,86.5z"/>
		<path class="st0" d="M175.1,88.8c-0.5-0.2-0.8-0.5-1.1-0.9c-0.5-0.7-0.8-1.5-0.8-2.6c0-0.5,0.1-1,0.2-1.4c0.1-0.4,0.3-0.8,0.6-1.2
			c0.3-0.4,0.7-0.7,1.1-0.9c0.5-0.2,0.9-0.3,1.5-0.3c0.5,0,1,0.1,1.5,0.3c0.5,0.2,0.8,0.5,1.1,0.9c0.3,0.4,0.5,0.7,0.6,1.2
			c0.1,0.4,0.2,0.9,0.2,1.4c0,0.5-0.1,1-0.2,1.4s-0.3,0.8-0.6,1.2c-0.3,0.4-0.7,0.7-1.1,0.9c-0.5,0.2-0.9,0.3-1.5,0.3
			C176,89.1,175.5,89,175.1,88.8z M177.5,87.8c0.3-0.1,0.5-0.3,0.7-0.6c0.3-0.4,0.5-1.1,0.5-1.8c0-0.8-0.2-1.4-0.5-1.8
			c-0.2-0.2-0.4-0.4-0.7-0.6c-0.3-0.1-0.6-0.2-0.9-0.2c-0.3,0-0.7,0.1-1,0.2s-0.5,0.3-0.7,0.6c-0.3,0.4-0.5,1-0.5,1.8
			c0,0.8,0.2,1.4,0.5,1.8c0.2,0.2,0.4,0.4,0.7,0.6c0.3,0.1,0.6,0.2,0.9,0.2C176.8,88,177.2,87.9,177.5,87.8z"/>
		<path class="st0" d="M184.1,85.7v0.9h-3v-0.9H184.1z"/>
		<path class="st0" d="M190.9,83.4c0.1,0.2,0.1,0.5,0.1,0.7c0,0.3,0,0.5-0.1,0.7c-0.1,0.2-0.2,0.5-0.4,0.7c-0.2,0.3-0.5,0.5-0.8,0.7
			c-0.3,0.2-0.7,0.2-1.1,0.2h-2V89h-1.2v-7.2h3.2c0.3,0,0.5,0,0.7,0.1c0.5,0.1,0.8,0.4,1.1,0.8C190.7,82.9,190.8,83.2,190.9,83.4z
			 M189.8,84.2c0-0.3-0.1-0.6-0.3-0.8c-0.1-0.1-0.2-0.2-0.4-0.3c-0.2-0.1-0.3-0.1-0.5-0.1h-2v2.4h2c0.2,0,0.3,0,0.5-0.1
			c0.2-0.1,0.3-0.2,0.4-0.3C189.7,84.7,189.8,84.5,189.8,84.2z"/>
		<path class="st0" d="M196.2,87.8h-3l-0.4,1.2h-1.2l2.3-7.2h1.8l2.3,7.2h-1.2L196.2,87.8z M195.9,86.7l-1.2-3.7l-1.2,3.7H195.9z"/>
		<path class="st0" d="M198.9,82.6c0.2-0.2,0.4-0.4,0.6-0.6c0.2-0.1,0.4-0.2,0.7-0.3c0.3-0.1,0.5-0.1,0.8-0.1c0.3,0,0.5,0,0.8,0.1
			c0.3,0.1,0.5,0.1,0.7,0.3c0.3,0.2,0.5,0.4,0.7,0.7c0.2,0.3,0.3,0.6,0.3,1c0,0.2,0,0.4-0.1,0.6c-0.1,0.2-0.1,0.4-0.3,0.5
			c-0.1,0.1-0.2,0.3-0.3,0.4c0.2,0.2,0.4,0.4,0.5,0.6c0.2,0.3,0.3,0.7,0.3,1.1c0,0.4-0.1,0.7-0.2,1c-0.2,0.3-0.4,0.6-0.7,0.8
			c-0.4,0.3-1,0.4-1.7,0.4c-0.7,0-1.2-0.1-1.7-0.4c-0.3-0.2-0.5-0.4-0.6-0.6c-0.2-0.3-0.3-0.6-0.3-0.9l1.3-0.2
			c0,0.2,0.1,0.3,0.1,0.4c0.1,0.1,0.2,0.2,0.3,0.3c0.1,0.1,0.3,0.2,0.4,0.2c0.2,0,0.3,0.1,0.5,0.1c0.4,0,0.8-0.1,1-0.3
			c0.3-0.2,0.4-0.5,0.4-0.9c0-0.4-0.1-0.7-0.4-0.8c-0.2-0.2-0.6-0.3-1-0.3h-0.5v-1.1h0.5c0.4,0,0.6-0.1,0.8-0.2
			c0.3-0.2,0.4-0.4,0.4-0.7c0-0.3-0.1-0.5-0.4-0.7c-0.2-0.1-0.5-0.2-0.8-0.2c-0.4,0-0.6,0.1-0.8,0.2c-0.2,0.1-0.3,0.3-0.3,0.6
			l-1.2-0.2C198.6,83.1,198.7,82.9,198.9,82.6z"/>
		<path class="st0" d="M210.2,86.9c0,0.5-0.2,0.9-0.4,1.3c-0.3,0.4-0.6,0.6-1.1,0.7c-0.3,0.1-0.5,0.1-0.8,0.1H205v-7.2h2.7
			c0.3,0,0.5,0,0.7,0.1c0.2,0.1,0.4,0.2,0.6,0.3c0.2,0.1,0.3,0.3,0.4,0.4c0.1,0.2,0.2,0.4,0.3,0.6c0.1,0.2,0.1,0.4,0.1,0.7
			c0,0.2,0,0.4-0.1,0.6c-0.1,0.2-0.2,0.4-0.3,0.5c0,0,0,0-0.1,0.1c0.2,0.1,0.3,0.3,0.4,0.4C210,85.9,210.2,86.4,210.2,86.9z
			 M206.2,83v1.7h1.6c0.1,0,0.2,0,0.3-0.1c0.1-0.1,0.2-0.1,0.3-0.2c0.1-0.2,0.2-0.3,0.2-0.5c0-0.2-0.1-0.4-0.2-0.6
			c-0.1-0.1-0.2-0.1-0.3-0.2c-0.1-0.1-0.2-0.1-0.3-0.1H206.2z M208.9,86.5c0-0.1-0.1-0.2-0.2-0.3c-0.2-0.2-0.4-0.3-0.7-0.3h-1.8v2
			h1.7c0.2,0,0.3,0,0.4-0.1c0.1,0,0.2-0.1,0.3-0.2c0.2-0.2,0.3-0.5,0.3-0.8C209,86.7,208.9,86.6,208.9,86.5z"/>
		<path class="st0" d="M217.2,89H216v-6h-2.6l-0.5,4c-0.1,0.7-0.3,1.2-0.6,1.5c-0.3,0.3-0.7,0.5-1.2,0.5c-0.1,0-0.2,0-0.3,0v-1.1
			c0.3,0,0.6-0.1,0.7-0.3c0.2-0.2,0.3-0.5,0.3-0.9l0.6-4.9h4.7V89z"/>
		<path class="st0" d="M219.9,83v1.9h2.8V86h-2.8v1.9h3.4V89h-4.6v-7.2h4.6V83H219.9z"/>
		<path class="st0" d="M229.1,89l-2.4-3H226v3h-1.2v-7.2h1.2v3h0.7l2.2-3h1.5l-2.6,3.5l2.8,3.6H229.1z"/>
		<path class="st0" d="M235.6,87.8h-3l-0.4,1.2h-1.2l2.3-7.2h1.8l2.3,7.2h-1.2L235.6,87.8z M235.2,86.7L234,83l-1.2,3.7H235.2z"/>
		<path class="st0" d="M243,83h-2.3v6h-1.2v-6h-2.3v-1.1h5.8V83z"/>
		<path class="st0" d="M245.1,83v1.9h2.8V86h-2.8v1.9h3.4V89h-4.6v-7.2h4.6V83H245.1z"/>
		<path class="st0" d="M255.8,89h-1.2v-6h-2.6l-0.5,4c-0.1,0.7-0.3,1.2-0.6,1.5c-0.3,0.3-0.7,0.5-1.2,0.5c-0.1,0-0.2,0-0.3,0v-1.1
			c0.3,0,0.6-0.1,0.7-0.3c0.2-0.2,0.3-0.5,0.3-0.9l0.6-4.9h4.7V89z"/>
		<path class="st0" d="M262.8,85.9c0.1,0.2,0.1,0.5,0.1,0.7c0,0.3-0.1,0.5-0.1,0.7c-0.1,0.2-0.2,0.5-0.4,0.7
			c-0.1,0.2-0.3,0.3-0.5,0.5c-0.2,0.1-0.4,0.2-0.6,0.3c-0.2,0.1-0.5,0.1-0.7,0.1h-3.2v-7.2h1.2v2.5h2c0.4,0,0.7,0.1,1.1,0.2
			c0.3,0.2,0.6,0.4,0.8,0.7C262.5,85.5,262.7,85.7,262.8,85.9z M261.4,85.9c-0.1-0.1-0.3-0.3-0.4-0.3c-0.2-0.1-0.3-0.1-0.5-0.1h-2
			v2.4h2c0.1,0,0.3,0,0.5-0.1c0.2-0.1,0.3-0.2,0.4-0.3c0.2-0.2,0.3-0.5,0.3-0.8C261.7,86.4,261.6,86.2,261.4,85.9z"/>
		<path class="st0" d="M269.7,81.8V89h-1.2v-2.5h-3.4V89h-1.2v-7.2h1.2v3.5h3.4v-3.5H269.7z"/>
		<path class="st0" d="M276.6,85.9c0.1,0.2,0.1,0.5,0.1,0.7c0,0.3-0.1,0.5-0.1,0.7c-0.1,0.2-0.2,0.5-0.4,0.7
			c-0.1,0.2-0.3,0.3-0.5,0.5c-0.2,0.1-0.4,0.2-0.6,0.3c-0.2,0.1-0.5,0.1-0.7,0.1h-3.2v-7.2h1.2v2.5h2c0.4,0,0.7,0.1,1.1,0.2
			c0.3,0.2,0.6,0.4,0.8,0.7C276.4,85.5,276.5,85.7,276.6,85.9z M275.3,85.9c-0.1-0.1-0.3-0.3-0.4-0.3c-0.2-0.1-0.3-0.1-0.5-0.1h-2
			v2.4h2c0.1,0,0.3,0,0.5-0.1c0.2-0.1,0.3-0.2,0.4-0.3c0.2-0.2,0.3-0.5,0.3-0.8C275.5,86.4,275.4,86.2,275.3,85.9z M278.9,81.8V89
			h-1.2v-7.2H278.9z"/>
		<path class="st0" d="M286.3,81.8V89H285v-5l-3.3,5h-1.2v-7.2h1.2v5l3.3-5H286.3z M285.1,79.7c0,0.3-0.1,0.5-0.2,0.8
			c-0.1,0.2-0.3,0.4-0.5,0.6c-0.2,0.1-0.5,0.2-0.8,0.2c-0.3,0-0.5-0.1-0.8-0.2c-0.2-0.1-0.4-0.3-0.6-0.6c-0.1-0.2-0.2-0.5-0.2-0.8
			h0.9c0,0.2,0.1,0.3,0.2,0.4c0.1,0.1,0.2,0.2,0.4,0.2c0.2,0,0.3-0.1,0.4-0.2c0.1-0.1,0.2-0.2,0.2-0.4H285.1z"/>
		<path class="st0" d="M294.2,89l-2.4-3h-0.7v3h-1.2v-7.2h1.2v3h0.7l2.2-3h1.5l-2.6,3.5l2.8,3.6H294.2z"/>
		<path class="st0" d="M297.9,88.8c-0.5-0.2-0.8-0.5-1.1-0.9c-0.5-0.7-0.8-1.5-0.8-2.6c0-0.5,0.1-1,0.2-1.4c0.1-0.4,0.3-0.8,0.6-1.2
			c0.3-0.4,0.7-0.7,1.1-0.9c0.5-0.2,0.9-0.3,1.5-0.3c0.5,0,1,0.1,1.5,0.3c0.5,0.2,0.8,0.5,1.1,0.9c0.3,0.4,0.5,0.7,0.6,1.2
			c0.1,0.4,0.2,0.9,0.2,1.4c0,0.5-0.1,1-0.2,1.4s-0.3,0.8-0.6,1.2c-0.3,0.4-0.7,0.7-1.1,0.9c-0.5,0.2-0.9,0.3-1.5,0.3
			C298.8,89.1,298.3,89,297.9,88.8z M300.3,87.8c0.3-0.1,0.5-0.3,0.7-0.6c0.3-0.4,0.5-1.1,0.5-1.8c0-0.8-0.2-1.4-0.5-1.8
			c-0.2-0.2-0.4-0.4-0.7-0.6c-0.3-0.1-0.6-0.2-0.9-0.2c-0.3,0-0.7,0.1-1,0.2s-0.5,0.3-0.7,0.6c-0.3,0.4-0.5,1-0.5,1.8
			c0,0.8,0.2,1.4,0.5,1.8c0.2,0.2,0.4,0.4,0.7,0.6c0.3,0.1,0.6,0.2,0.9,0.2C299.6,88,300,87.9,300.3,87.8z"/>
		<path class="st0" d="M311.3,89h-1.2v-4.6l-2.2,4.6h-0.5l-2.2-4.6V89H304v-7.2h1.2l2.4,5.1l2.4-5.1h1.2V89z"/>
		<path class="st0" d="M319,89h-1.2v-6H314v6h-1.2v-7.2h6.2V89z"/>
		<path class="st0" d="M326.4,89h-1.2v-6h-2.6l-0.5,4c-0.1,0.7-0.3,1.2-0.6,1.5c-0.3,0.3-0.7,0.5-1.2,0.5c-0.1,0-0.2,0-0.3,0v-1.1
			c0.3,0,0.6-0.1,0.7-0.3c0.2-0.2,0.3-0.5,0.3-0.9l0.6-4.9h4.7V89z"/>
		<path class="st0" d="M329.1,83v1.9h2.8V86h-2.8v1.9h3.4V89h-4.6v-7.2h4.6V83H329.1z"/>
		<path class="st0" d="M338.3,89l-2.4-3h-0.7v3H334v-7.2h1.2v3h0.7l2.2-3h1.5l-2.6,3.5l2.8,3.6H338.3z"/>
		<path class="st0" d="M346.7,86.9c-0.1,0.4-0.3,0.8-0.6,1.1c-0.3,0.4-0.7,0.7-1.2,0.9c-0.5,0.2-0.9,0.3-1.4,0.3
			c-0.5,0-1-0.1-1.5-0.3c-0.5-0.2-0.8-0.5-1.1-0.9c-0.6-0.7-0.8-1.5-0.8-2.6c0-1,0.3-1.9,0.8-2.6c0.3-0.4,0.7-0.7,1.1-0.9
			c0.5-0.2,0.9-0.3,1.5-0.3c0.5,0,1,0.1,1.5,0.3c0.5,0.2,0.8,0.5,1.1,0.9c0.3,0.4,0.5,0.8,0.6,1.3l-1.2,0.2
			c-0.1-0.3-0.2-0.6-0.4-0.8c-0.2-0.2-0.4-0.4-0.7-0.6c-0.3-0.1-0.6-0.2-0.9-0.2c-0.3,0-0.6,0.1-0.9,0.2s-0.5,0.3-0.7,0.6
			c-0.3,0.4-0.5,1-0.5,1.8c0,0.8,0.2,1.4,0.5,1.8c0.2,0.2,0.4,0.4,0.7,0.6c0.3,0.1,0.6,0.2,0.9,0.2c0.3,0,0.7-0.1,1-0.2
			s0.5-0.3,0.7-0.6c0.2-0.2,0.3-0.4,0.3-0.7L346.7,86.9z"/>
	</g>
	<path class="st1" d="M108.2,14.4c-0.1-5.7-4.8-10.3-10.4-10.4c-0.2,0-0.3,0-0.5,0c-0.2,0-0.3,0-0.5,0c-0.5,0-1,0.1-1.4,0.2
		L11.3,19.6c-5.1,0.9-8.9,5.7-8.7,11c0.1,2.8,1.2,5.3,2.9,7.1L34,71l10.1-26.1l-18.6,3.4L31,34c1.3-3.9,4.7-6.8,8.9-7.2l53.6-9.9
		L89.3,28l-1.4,3.6l-0.2,0.6c-1.5,3.4-4.7,5.9-8.6,6.3L74,39.4c-4,0.6-7.2,3.4-8.5,7.1l-1.1,2.9L53.4,77.9l-1.7,4.4
		c-0.6,1.4-0.9,2.9-0.9,4.5c0.1,2.6,1.1,4.9,2.6,6.8l0,0l5,5.8c1.5,1.8,2.3,2.4,2.3,2.4c1.9,1.4,4.2,2.2,6.7,2.2
		c4.3-0.1,7.9-2.7,9.5-6.4l0.2-0.6l30.3-78.5l0.2-0.5C108,16.9,108.3,15.6,108.2,14.4z"/>
</g>
</svg>
